# xmcd
#
# Track frame offsets: 
#        150
#        14990
#        29067
#        43273
#        57874
#        72378
#        88030
#
# Disc length: 1351 seconds
#
# Revision: 0
# Processed by: cddbd v1.5.2PL0 Copyright (c) Steve Scherf et al.
# Submitted via: ExactAudioCopyFreeDBPlugin 1.0
#
DISCID=68054507
DTITLE=james barker band - game on
DYEAR=1900
DGENRE=
TTITLE0=lawn chair lazy
TTITLE1=just sayin
TTITLE2=chills
TTITLE3=its working
TTITLE4=throwback
TTITLE5=living the dream
TTITLE6=chills (acoustic version)
EXTD=
EXTT0=
EXTT1=
EXTT2=
EXTT3=
EXTT4=
EXTT5=
EXTT6=
PLAYORDER=
